<?xml version="1.0" standalone="no"?>
<!DOCTYPE svg PUBLIC "-//W3C//DTD SVG 1.1//EN" "http://www.w3.org/Graphics/SVG/1.1/DTD/svg11.dtd">
<svg t="1711250198323" class="icon" viewBox="0 0 1040 1024" version="1.1" xmlns="http://www.w3.org/2000/svg" p-id="2062" xmlns:xlink="http://www.w3.org/1999/xlink" width="48.75" height="48"><path d="M515.517646 512m-512 0a512 512 0 1 0 1024 0 512 512 0 1 0-1024 0Z" fill="#F0F0F0" p-id="2063"></path><path d="M1015.832485 683.908129c-144.42529 225.519484-467.823484 276.207484-722.378322 113.197419C38.907582 634.103742-50.374483 319.157677 94.04255 93.642323l921.789935 590.265806z" fill="#7ED9A0" p-id="2064"></path><path d="M612.57055 917.41729c-115.910194 0-230.883097-34.39071-332.477936-99.447742-128.21471-82.101677-220.473806-203.697548-259.790451-342.395871C-19.32416 335.789419-0.545321 195.406452 73.17855 80.280774a24.770065 24.770065 0 0 1 34.221419-7.502451l921.789936 590.265806a24.749419 24.749419 0 0 1 10.838709 15.558194 24.757677 24.757677 0 0 1-3.336258 18.667354c-88.274581 137.847742-246.82529 220.147613-424.121806 220.147613zM102.168485 128.264258C46.917905 227.109161 34.687711 344.650323 67.967711 462.059355c36.013419 127.037935 120.836129 238.612645 238.843871 314.182193 93.605161 59.941161 199.333161 91.623226 305.758968 91.623226 151.271226 0 287.075097-65.664 368.392258-176.871226L102.168485 128.264258z" fill="#666666" p-id="2065"></path><path d="M1015.832485 683.908129c-101.937548 159.198968-390.928516 156.110452-645.470968-6.895484C115.80255 514.002581-7.911515 252.837161 94.04255 93.642323l921.789935 590.265806z" fill="#FF8A8A" p-id="2066"></path><path d="M755.740614 826.087226c-128.020645 0-269.629935-45.530839-398.740645-128.21471-126.976-81.308903-226.72929-189.051871-280.881548-303.372387-55.981419-118.181161-57.021935-229.772387-2.939871-314.219355a24.770065 24.770065 0 0 1 34.221419-7.502451l921.789936 590.265806a24.774194 24.774194 0 0 1 7.502451 34.221419c-53.190194 83.072-152.968258 128.821677-280.951742 128.821678zM102.886937 128.722581c-31.616 66.915097-25.517419 152.666839 18.010838 244.566709 50.225548 106.037677 143.566452 206.492903 262.825291 282.859355 121.232516 77.638194 253.35329 120.390194 372.017548 120.390194 99.195871 0 177.812645-30.340129 224.524387-85.991226L102.886937 128.722581z" fill="#666666" p-id="2067"></path><path d="M1015.832485 683.908129c-101.937548 159.198968-390.928516 156.110452-645.470968-6.895484C115.80255 514.002581-7.911515 252.837161 94.04255 93.642323l921.789935 590.265806z" fill="#FF8A8A" opacity=".75" p-id="2068"></path><path d="M755.740614 826.087226c-128.020645 0-269.629935-45.530839-398.740645-128.21471-126.976-81.308903-226.72929-189.051871-280.881548-303.372387-55.981419-118.181161-57.021935-229.772387-2.939871-314.219355a24.770065 24.770065 0 0 1 34.221419-7.502451l921.789936 590.265806a24.774194 24.774194 0 0 1 7.502451 34.221419c-53.190194 83.072-152.968258 128.821677-280.951742 128.821678zM102.886937 128.722581c-31.616 66.915097-25.517419 152.666839 18.010838 244.566709 50.225548 106.037677 143.566452 206.492903 262.825291 282.859355 121.232516 77.638194 253.35329 120.390194 372.017548 120.390194 99.195871 0 177.812645-30.340129 224.524387-85.991226L102.886937 128.722581z" fill="#666666" opacity=".75" p-id="2069"></path><path d="M745.579066 788.360258c-6.734452 0-13.539097-0.161032-20.459355-0.487226-110.492903-5.202581-237.786839-52.062968-368.119742-135.523097-130.770581-83.736774-227.720258-180.422194-280.373677-279.597419C20.062679 266.211097 18.873517 165.07871 73.17855 80.280774a24.774194 24.774194 0 1 1 41.728 26.723097c-55.704774 86.978065-27.767742 179.885419 5.483355 242.510452 47.971097 90.355613 141.489548 183.08129 263.329032 261.107612 123.032774 78.781935 241.895226 122.958452 343.733677 127.752259 69.223226 3.261935 163.468387-11.202065 219.441549-98.613678a24.774194 24.774194 0 0 1 41.723871 26.718968c-51.216516 79.983484-134.982194 121.880774-243.038968 121.880774z" fill="#666666" opacity=".15" p-id="2070"></path><path d="M230.337775 330.066581a24.679226 24.679226 0 0 1-15.190709-5.219097l-37.161291-28.903226a24.774194 24.774194 0 0 1 30.418581-39.114323l37.16129 28.903226a24.774194 24.774194 0 0 1-15.227871 44.33342zM368.916356 509.935484a24.679226 24.679226 0 0 1-14.187355-4.48l-41.290322-28.903226a24.774194 24.774194 0 0 1 28.411871-40.592516l41.290322 28.903226a24.774194 24.774194 0 0 1-14.224516 45.072516zM494.079711 495.987613a24.679226 24.679226 0 0 1-14.187355-4.48l-41.290322-28.903226a24.774194 24.774194 0 0 1 28.411871-40.592516l41.290322 28.903226a24.774194 24.774194 0 0 1-14.224516 45.072516zM783.879969 693.681548a24.650323 24.650323 0 0 1-12.721548-3.534451l-41.290323-24.774194a24.774194 24.774194 0 1 1 25.488516-42.483613l41.290323 24.774194a24.765935 24.765935 0 0 1 8.497548 33.986064 24.753548 24.753548 0 0 1-21.264516 12.032zM589.05984 654.464a24.675097 24.675097 0 0 1-14.55071-4.736l-45.419355-33.032258a24.774194 24.774194 0 0 1 29.146839-40.072258l45.419355 33.032258a24.774194 24.774194 0 0 1-14.596129 44.808258z" fill="#666666" p-id="2071"></path></svg>
